<svg width="812.48403" height="497.67988" xmlns="http://www.w3.org/2000/svg">

 <g>
  <title>background</title>
  <rect fill="none" id="canvas_background" height="602" width="802" y="-1" x="-1"/>
 </g>
 <g>
  <title>Layer 1</title>
  <ellipse id="svg_1" fill="#e6e6e6" transform="rotate(-89.90804290771484 -456.349334716797,922.4768066406249) " ry="98.0657" rx="5.51263" cy="1615.80183" cx="-24.92411"/>
  <path id="svg_2" fill="#a0616a" d="m290.13161,225.5694l12.12534,3.22083a8.72834,8.72834 0 0 0 10.93221,-7.63383l0,0a8.72835,8.72835 0 0 0 -10.48525,-9.344l-12.91118,2.71134l-41.43781,-1.32609l-12.38165,-21.47947l-13.72482,13.408l18.1617,23.32487l49.72146,-2.88165z"/>
  <path id="svg_3" fill="#393e46" d="m219.6272,206.86921l28.971,-10.2572l-10.16788,-19.32269a16.42326,16.42326 0 0 0 -24.09275,-5.7069l0,0a16.42325,16.42325 0 0 0 -3.678,23.07634l8.96763,12.21045z"/>
  <path id="svg_4" fill="#2f2e41" d="m250.63358,235.11466l8.01008,37.68171l43.43948,169.64881l-32.87312,9.97934l-38.15631,-135.01458l-41.09141,135.6016l-36.98228,-10.56636l36.39524,-93.3362l4.10915,-47.54862s-13.45228,-38.8987 13.23254,-66.998l43.91663,0.5523z"/>
  <path id="svg_5" fill="#2f2e41" d="m153.54427,491.74183l12.90723,1.06233l1.49927,-15.43776c2.93482,11.26808 8.46555,17.113 16.40932,17.91679a10.06294,10.06294 0 0 0 9.609,-5.04678l0,0q0.24933,-0.42728 0.45485,-0.87357a6.31928,6.31928 0 0 0 -2.52071,-7.83942c-8.61125,-5.71253 -7.6082,-23.28724 -5.88124,-41.7552l-16.11462,-0.37657l-2.1934,13.335c-11.52971,10.95864 -14.47122,23.72335 -14.1697,39.01518z"/>
  <path id="svg_6" fill="#2f2e41" d="m266.9761,493.88953l12.94177,-0.48556l-0.35372,-15.50635c4.25854,10.83732 10.44725,15.98047 18.43017,15.83053a10.06292,10.06292 0 0 0 8.93808,-6.15741l0,0q0.19656,-0.454 0.34736,-0.92161a6.31928,6.31928 0 0 0 -3.43823,-7.48258c-9.23142,-4.64408 -10.33283,-22.2129 -10.8221,-40.755l-16.04441,1.54919l-0.58638,13.50149c-10.13956,12.25621 -11.53677,25.28071 -9.41254,40.4273z"/>
  <circle id="svg_7" fill="#a0616a" r="20.82128" cy="130.07146" cx="203.9957"/>
  <path id="svg_8" fill="#a0616a" d="m195.83251,211.74628l30.525,-31.69908l-14.67549,-21.71975l-0.587,-21.13272l-24.65484,0l2.2899,18.17643c-15.46706,17.58044 -6.70014,36.80678 7.10243,56.37512z"/>
  <path id="svg_9" fill="#393e46" d="m204.3443,236.69464l49.8967,5.28318c-5.02678,-36.06288 -15.84123,-64.73094 -33.16663,-70.73592l-40.50435,9.39232l23.77428,56.06042z"/>
  <path id="svg_10" fill="#a0616a" d="m206.78317,259.64194l5.71606,11.168a8.72834,8.72834 0 0 0 12.98707,3.02065l0,0a8.72834,8.72834 0 0 0 -0.06722,-14.04444l-10.65151,-7.7843l-26.731,-31.6908l7.68551,-23.57129l-19.14732,-1.23443l-5.19121,29.10238l35.39962,35.03423z"/>
  <path id="svg_11" fill="#393e46" d="m173.52574,194.7227l27.00293,14.6755l7.563,-20.483a16.42326,16.42326 0 0 0 -11.87268,-21.72714l0,0a16.42327,16.42327 0 0 0 -19.61449,12.70107l-3.07876,14.83357z"/>
  <path id="svg_12" fill="#2f2e41" d="m198.6439,132.67948c3.07851,0.9433 6.07527,-1.7459 7.70846,-4.52074s2.86988,-6.0657 5.6685,-7.6578c3.62638,-2.063 8.718,-0.53223 11.93791,-3.18528c3.05243,-2.515 2.50925,-7.69773 -0.2045,-10.57493s-6.83284,-3.92117 -10.76107,-4.38132c-8.85632,-1.03743 -18.23094,0.35107 -25.66863,5.26955s-12.5734,13.70429 -11.79413,22.58705c0.335,3.8185 1.69255,7.46307 2.52905,11.20384s1.11081,7.8294 -0.61264,11.25327c-2.27275,4.51516 -7.58806,6.82477 -12.64033,6.98785s-9.973,-1.43235 -14.81054,-2.89886s-9.86985,-2.83515 -14.88555,-2.20686a20.78038,20.78038 0 0 0 -16.35668,13.20416a23.6084,23.6084 0 0 0 2.701,21.09454c4.28708,6.37651 11.409,10.49416 18.8876,12.2577s15.31836,1.35505 22.89877,0.09955a104.9966,104.9966 0 0 0 28.83707,-9.20691c5.54505,-2.70566 11.15078,-6.2205 13.79136,-11.79683c2.6141,-5.52041 1.78907,-12.18234 -0.788,-17.72011s-6.72575,-10.169 -10.87732,-14.64924c-2.10745,-2.2743 -4.28023,-4.60916 -5.40309,-7.49931s-0.95289,-6.51219 1.24736,-8.69684s6.61081,-1.90043 7.84778,0.94275"/>
  <ellipse id="svg_13" fill="#e6e6e6" transform="rotate(-0.09195999801158905 -194.81262207025512,-200.7751464843605) " ry="3.47272" rx="45.53122" cy="456.50135" cx="44.47652"/>
  <ellipse id="svg_14" fill="#e6e6e6" transform="matrix(1,-0.00161,0.00161,1,-194.86621,-200.11869) " ry="5.33898" rx="94.97651" cy="690.99875" cx="648.26563"/>
  <ellipse id="svg_15" fill="#e6e6e6" transform="matrix(1,-0.00161,0.00161,1,-194.86588,-199.69657) " ry="5.33898" rx="94.97651" cy="690.99875" cx="911.26563"/>
  <path id="svg_16" fill="#ccc" d="m484.12528,448.72935s-93.13562,-46.56781 -79.83053,-177.40118s8.87006,-117.52823 8.87006,-117.52823s22.17515,-73.178 62.09041,-99.78817c0,0 -95.35313,-97.57064 -170.74863,79.83053c0,0 -19.95763,106.44071 -4.435,177.40118s51.00284,128.61585 51.00284,128.61585s33.26272,33.26272 70.96047,33.26272s62.09038,-24.3927 62.09038,-24.3927z"/>
  <path id="svg_17" fill="#e6e6e6" d="m638.24255,370.00758s-53.22035,141.92093 -219.53395,115.31076s-121.96331,-314.88708 -121.96331,-314.88708s-18.58427,215.04627 78.65341,278.28909c26.94269,17.52337 62.13359,17.68025 87.87025,-1.57077c17.05364,-12.75612 31.66671,-35.00923 29.72639,-73.81573l145.24721,-3.32627z"/>
  <path id="svg_18" fill="#e6e6e6" d="m633.05671,99.99461s-75.75345,-136.901 -239.84953,-90.33317c-101.71943,43.33856 -99.82516,154.9285 -99.82516,154.9285c-12.2649,185.02011 119.74609,182.0321 150.828,-15.22507c5.4574,-34.63464 -5.54381,-54.32911 -5.54381,-54.32911s-15.5226,46.5678 -63.19917,56.54662c-47.75062,9.99432 -55.91482,-5.90338 -54.32911,-29.93645q0.02379,-0.3605 0.04839,-0.71625a90.65272,90.65272 0 0 1 21.53689,-52.8241c27.33456,-31.82651 86.91548,-78.30286 150.27211,19.16887l4.435,10.96735s78.32895,21.12551 135.62639,1.75281z"/>
  <path id="svg_19" fill="#3f3d56" d="m510.7138,96.14451a43.26849,43.26849 0 0 0 -43.21988,43.21988l0,203.38768a45.04666,45.04666 0 0 0 44.99563,44.99562l107.00807,0a54.28686,54.28686 0 0 0 54.22516,-54.22516l0,-182.73059a54.709,54.709 0 0 0 -54.64744,-54.64745l-108.36154,0.00002z"/>
  <path id="svg_20" fill="#ffd369" d="m529.27033,105.01457a22.99583,22.99583 0 0 0 -22.9699,22.9699l0,229.032a22.99513,22.99513 0 0 0 22.9699,22.9699l101.761,0a46.07069,46.07069 0 0 0 46.01769,-46.01774l0,-188.41079a40.58946,40.58946 0 0 0 -40.54327,-40.54327l-107.23542,0z"/>
  <path id="svg_21" opacity="0.2" d="m525.51839,106.28778a22.925,22.925 0 0 0 -9.23915,18.37042l0,229.032a22.99514,22.99514 0 0 0 22.9699,22.9699l101.761,0a45.79058,45.79058 0 0 0 11.43677,-1.49707a45.69239,45.69239 0 0 1 -22.52434,5.9321l-101.761,0a22.99514,22.99514 0 0 1 -22.9699,-22.9699l0,-229.032a22.99465,22.99465 0 0 1 20.32672,-22.80545z"/>
  <ellipse id="svg_22" fill="#ffd369" ry="27.71893" rx="22.17515" cy="188.17137" cx="475.25522"/>
  <path id="svg_23" opacity="0.2" d="m490.77782,188.17137c0,-13.41 -7.61851,-24.59365 -17.74011,-27.16225a17.99387,17.99387 0 0 1 4.435,-0.55668c12.24695,0 22.17514,12.41018 22.17514,27.71893s-9.92819,27.71894 -22.17514,27.71894a17.99434,17.99434 0 0 1 -4.435,-0.55668c10.1216,-2.56861 17.74011,-13.75228 17.74011,-27.16226z"/>
  <path id="svg_24" fill="#ffd369" d="m470.82019,259.13184l0,57.65538a7.7613,7.7613 0 0 0 15.5226,0l0,-57.65538a7.7613,7.7613 0 0 0 -15.52261,0l0.00001,0z"/>
  <path id="svg_25" opacity="0.2" d="m483.01652,316.78722l0,-57.65538a7.74719,7.74719 0 0 0 -5.54378,-7.39938a7.65046,7.65046 0 0 1 2.21751,-0.36192a7.77071,7.77071 0 0 1 7.7613,7.7613l0,57.65538a7.77071,7.77071 0 0 1 -7.7613,7.7613a7.65046,7.65046 0 0 1 -2.21751,-0.36191a7.74721,7.74721 0 0 0 5.54378,-7.39939z"/>
  <circle id="svg_26" fill="#fff" r="11.08757" cy="366.68131" cx="359.94445"/>
  <path id="svg_27" opacity="0.3" d="m366.59702,366.6813a11.09006,11.09006 0 0 0 -8.87006,-10.86411a11.08758,11.08758 0 1 1 0,21.72823a11.09006,11.09006 0 0 0 8.87006,-10.86412z"/>
  <circle id="svg_28" fill="#fff" r="11.08757" cy="322.68131" cx="354.94445"/>
  <path id="svg_29" opacity="0.3" d="m361.59702,322.6813a11.09006,11.09006 0 0 0 -8.87006,-10.86411a11.08758,11.08758 0 1 1 0,21.72823a11.09006,11.09006 0 0 0 8.87006,-10.86412z"/>
  <circle id="svg_30" fill="#fff" r="11.08757" cy="120.53718" cx="366.597"/>
  <path id="svg_31" opacity="0.3" d="m373.24955,120.53717a11.09007,11.09007 0 0 0 -8.87006,-10.86411a11.08758,11.08758 0 1 1 0,21.72823a11.09007,11.09007 0 0 0 8.87006,-10.86412z"/>
  <ellipse id="svg_32" opacity="0.2" fill="#fff" ry="27.71893" rx="22.17515" cy="248.86826" cx="595.98622"/>
  <ellipse id="svg_33" opacity="0.2" fill="#fff" ry="51.79371" rx="41.43497" cy="248.86826" cx="595.98622"/>
  <ellipse id="svg_34" opacity="0.2" fill="#fff" ry="78.03266" rx="62.42613" cy="248.86826" cx="595.98622"/>
  <path id="svg_35" fill="#e6e6e6" d="m9.73031,308.31c12.12132,17.13449 15.32317,114.654 16.03676,145.91324c0.01826,0.70443 0.03657,1.37223 0.04573,2.00345l30.68293,0c0.3751,-0.66779 0.72274,-1.32649 1.05206,-2.00345c18.18656,-35.89739 8.0961,-78.9395 7.56555,-81.11677c1.38133,6.84281 -4.86683,26.676 -11.92925,45.88718c-4.30875,-59.06971 -41.14843,-107.70134 -43.45378,-110.68365z"/>
  <path id="svg_36" fill="#ffb8b8" d="m797.51502,306.37852l1.4953,10.21787a9.03526,9.03526 0 0 1 -10.18867,10.25686l0,0a9.03526,9.03526 0 0 1 -7.17943,-12.20486l5.07289,-13.12984l-2.7,-88.5594l15.65989,-5.94l-2.15998,99.35937z"/>
  <circle id="svg_37" fill="#ffb8b8" r="21.59985" cy="137.89966" cx="753.23532"/>
  <path id="svg_38" fill="#ffb8b8" d="m779.15514,178.39939l-39.95972,-1.62c4.43638,-9.71572 6.19624,-19.11365 4.32,-28.07981l26.45982,0c-1.39142,8.45563 2.44893,18.6088 9.1799,29.69981z"/>
  <path id="svg_39" fill="#393e46" d="m772.67519,262.63881l-58.8596,4.32l2.13955,-33.26063c-6.78344,-16.13412 -5.69989,-27.78482 2.28391,-35.50314l0.72286,-11.23763a17.23694,17.23694 0 0 1 12.7348,-15.5417l10.19869,-2.73623c13.20552,7.73581 23.73255,7.63032 31.31978,-1.08l12.13812,6.21708a16.28374,16.28374 0 0 1 8.76078,16.29147l-21.43889,72.53078z"/>
  <path id="svg_40" fill="#ffb8b8" d="m682.4958,265.87879l-16.61422,8.72247a7.1619,7.1619 0 0 1 -8.7056,-1.60977l0,0a7.16187,7.16187 0 0 1 3.9413,-11.74792l11.6586,-2.38471l36.17974,-14.03992l5.94,-42.11971l16.73989,4.32l-3.24,49.67966l-45.89971,9.1799z"/>
  <path id="svg_41" fill="#393e46" d="m800.75502,209.71917l-18.3599,10.79993l-1.08,-43.19971l3.16557,-1.08a16.2743,16.2743 0 0 1 16.2743,16.2743l0.00003,17.20548z"/>
  <path id="svg_42" fill="#2f2e41" d="m788.06508,474.58738l-15.61206,-2.44244c-3.15218,-53.34026 -9.50162,-103.137 -20.83772,-147.40654c-26.21487,34.73733 -48.19045,85.93394 -66.95955,149.579l-18.35987,-4.86l48.05967,-209.51858l57.23962,-1.08c23.40958,32.05182 16.55627,131.04267 16.46991,215.72856z"/>
  <path id="svg_43" fill="#2f2e41" d="m676.54825,493.02309l-27.12637,-3.80277a5.34855,5.34855 0 0 1 -4.41756,-6.70407l0,0a5.34857,5.34857 0 0 1 4.39547,-3.88632l4.82027,-0.69626l15.24135,-9.30842l12.60748,3.362l3.73829,11.03233a8.30045,8.30045 0 0 1 -9.25893,10.00351z"/>
  <path id="svg_44" fill="#2f2e41" d="m782.92752,493.02309l-27.12636,-3.80277a5.34855,5.34855 0 0 1 -4.41756,-6.70407l0,0a5.34857,5.34857 0 0 1 4.39547,-3.88632l4.82026,-0.69626l15.24136,-9.30842l12.60748,3.362l3.73829,11.03233a8.30046,8.30046 0 0 1 -9.25894,10.00351z"/>
  <path id="svg_45" fill="#393e46" d="m734.87544,217.81912c-4.91019,-10.79215 -13.38811,-14.9731 -27.53981,-8.63994l1.9081,-14.07227a27.34258,27.34258 0 0 1 19.69174,-22.64748l0,0l5.93997,45.35969z"/>
  <path id="svg_46" fill="#2f2e41" d="m727.74329,126.81687s-3.398,-26.44491 24.32755,-17.773c0,0 19.80178,-3.63334 26.29556,21.13566l6.57538,25.964l-3.20451,-1.74419l-1.494,3.26563l-5.1928,1.31508l-2.22213,-4.41051l-1.075,5.356l-42.5319,4.24007s19.04919,-11.26555 19.35126,-31.45613l-3.62847,3.83435l-17.20094,-9.72696z"/>
  <circle id="svg_47" fill="#2f2e41" r="10.69466" cy="109.3028" cx="774.87221"/>
  <path id="svg_48" fill="#2f2e41" d="m763.8523,106.68458a10.68624,10.68624 0 0 1 10.6896,-9.99567c-0.22084,-0.028 -0.4397,-0.06208 -0.66488,-0.07655a10.69466,10.69466 0 1 0 -1.37235,21.34525c0.22519,0.01448 0.4466,0.00873 0.66921,0.00922a10.68624,10.68624 0 0 1 -9.32158,-11.28225z"/>
 </g>
</svg>