<svg width="122.9" height="107.5" xmlns="http://www.w3.org/2000/svg">

 <g>
  <title>background</title>
  <rect fill="none" id="canvas_background" height="402" width="582" y="-1" x="-1"/>
 </g>
 <g>
  <title>Layer 1</title>
  <g id="svg_1">
   <path fill="#ffffff" id="svg_2" d="m3.9,7.9c-2.1,0 -3.9,-1.8 -3.9,-4c0,-2.1 1.8,-3.9 3.9,-3.9l10.2,0c0.1,0 0.3,0 0.4,0c3.6,0.1 6.8,0.8 9.5,2.5c3,1.9 5.2,4.8 6.4,9.1c0,0.1 0,0.2 0.1,0.3l1,4l87.5,0c2.2,0 3.9,1.8 3.9,3.9c0,0.4 -0.1,0.8 -0.2,1.2l-10.2,41.1c-0.4,1.8 -2,3 -3.8,3l0,0l-64,0c1.4,5.2 2.8,8 4.7,9.3c2.3,1.5 6.3,1.6 13,1.5l0.1,0l0,0l45.2,0c2.2,0 3.9,1.8 3.9,3.9c0,2.2 -1.8,3.9 -3.9,3.9l-45.2,0l0,0c-8.3,0.1 -13.4,-0.1 -17.5,-2.8c-4.2,-2.8 -6.4,-7.6 -8.6,-16.3l0,0l-13.4,-50.7c0,-0.1 0,-0.1 -0.1,-0.2c-0.6,-2.2 -1.6,-3.7 -3,-4.5c-1.4,-0.9 -3.3,-1.3 -5.5,-1.3c-0.1,0 -0.2,0 -0.3,0l-10.2,0l0,0zm92.1,80.4c5.3,0 9.6,4.3 9.6,9.6c0,5.3 -4.3,9.6 -9.6,9.6c-5.3,0 -9.6,-4.3 -9.6,-9.6c0,-5.3 4.3,-9.6 9.6,-9.6l0,0zm-42.1,0c5.3,0 9.6,4.3 9.6,9.6c0,5.3 -4.3,9.6 -9.6,9.6c-5.3,0 -9.6,-4.3 -9.6,-9.6c0,-5.3 4.3,-9.6 9.6,-9.6l0,0zm-20.2,-64.6l8.9,33.5l63.1,0l8.3,-33.5l-80.3,0l0,0z"/>
  </g>
 </g>
</svg>